# xmcd
#
# Track frame offsets:
#	150
#	22137
#	40292
#	52230
#	68565
#	84007
#	99635
#	114755
#	126915
#	142305
#	161630
#	179115
#	193795
#	213595
#	228492
#	242965
#	252955
#	277557
#
# Disc length: 3881
#
# Revision: 2
# Processed by: cddbd v1.5.1PL0 Copyright (c) Steve Scherf et al.
# Submitted via: ExactAudioCopy v0.90a11
# Normalized: r1:DSETVAR1
#
DISCID=0b0f2712
DTITLE=Various Artist - Not So Dusty A Tribute to Slim Dusty
DYEAR=1900
DGENRE=Country
TTITLE0=Graeme Connors - When the Rain Tumbles Down in July
TTITLE1=Midnight Oil - Pub With No Beer
TTITLE2=Tom T. Hall and The McCormacks - Drowning My Blues
TTITLE3=Mental As Anything - Lights on the Hill
TTITLE4=Keith Urban - Walk a Country Mile
TTITLE5=Michael Spiby - Losin' My Blues Tonight
TTITLE6=Dead Ringer Band - Saddle Boy
TTITLE7=Ross Wilson and The Feral Swinging Katz - Wedding Bell Blues
TTITLE8=Tania and Ray Kernghan - Indian Pacific
TTITLE9=Karma Country - Things Are Not the Same on the Land
TTITLE10=Paul Kelly and Uncle Bill - The Sunlander
TTITLE11=Troy Cassar-Daley - The Biggest Disappointment
TTITLE12=Anne and David Kirkpatrick - Gumtrees by the Roadway
TTITLE13=Don Walker - Highway Fever
TTITLE14=James Blundell - Plains of Peppimenarti
TTITLE15=The Screaming Jets - Cunnamulla Feller
TTITLE16=Ed Kuepper and Felicity with the Oxley Creek Playboys - Camooweal
TTITLE17=John Williamson - I Must Have Good Terbaccy When I Smoke
EXTD=ID3G: 2
EXTT0=
EXTT1=
EXTT2=
EXTT3=
EXTT4=
EXTT5=
EXTT6=
EXTT7=
EXTT8=
EXTT9=
EXTT10=
EXTT11=
EXTT12=
EXTT13=
EXTT14=
EXTT15=
EXTT16=
EXTT17=
PLAYORDER=
